<?xml version="1.0" encoding="utf-8"?>
<!-- Generator: Adobe Illustrator 28.0.0, SVG Export Plug-In . SVG Version: 6.00 Build 0)  -->
<svg version="1.1" id="Layer_1" xmlns="http://www.w3.org/2000/svg" xmlns:xlink="http://www.w3.org/1999/xlink" x="0px" y="0px"
	 viewBox="0 0 216 214.5" style="enable-background:new 0 0 216 214.5;" xml:space="preserve">
<style type="text/css">
	.st0{fill:#FFFFFF;}
</style>
<g>
	<path class="st0" d="M3.4,102.8h16.9c1.8,0,3.2-1.4,3.4-3.2c1.4-16.7,7.6-32.1,17.3-44.6c1.1-1.4,1-3.5-0.4-4.7L28.2,39
		c-1.5-1.4-3.8-1.1-5,0.4C9.9,56.1,1.5,76.7,0,99.2C-0.1,101.2,1.5,102.8,3.4,102.8z"/>
	<path class="st0" d="M34.9,149.1c-6.2-10.6-10.1-22.6-11.2-35.5c-0.1-1.8-1.6-3.2-3.4-3.2H3.4c-2,0-3.6,1.7-3.4,3.7
		c1.3,18.6,7.3,36,16.8,50.8c1.2,1.9,3.8,2.2,5.3,0.6l12.2-12.2C35.5,152.2,35.7,150.5,34.9,149.1z"/>
	<path class="st0" d="M122,20.6c0,1.6,1.2,3,2.8,3.4c38.5,7.8,67.5,41.9,67.5,82.7c0,15.5-4.2,30-11.5,42.5
		c-0.8,1.4-0.6,3.1,0.5,4.2l12.3,12.3c1.6,1.6,4.1,1.3,5.3-0.6c10.8-16.8,17.1-36.9,17.1-58.4C216,53.1,177.1,8.7,126,0
		c-2.1-0.4-4,1.2-4,3.4V20.6z"/>
	<path class="st0" d="M50.5,44.7c11.1-10.3,25-17.6,40.5-20.8c1.6-0.3,2.8-1.7,2.8-3.4V3.4c0-2.1-1.9-3.7-4-3.4
		C68,3.7,48.5,13.8,33.3,28.3c-1.5,1.4-1.5,3.7,0,5l12.5,11.4C47.1,46,49.2,45.9,50.5,44.7z"/>
	<path class="st0" d="M100.9,190.8c-16.2-1.3-31-7.2-43.3-16.3c-1.4-1-3.3-0.9-4.5,0.3l-12,12c-1.5,1.5-1.3,3.9,0.3,5.2
		c16.5,12.9,36.9,21.1,59.1,22.6c2,0.1,3.6-1.5,3.6-3.4v-16.9C104.1,192.4,102.7,190.9,100.9,190.8z"/>
	<path class="st0" d="M158.2,174.4c-12.3,9.1-27.1,15-43.3,16.3c-1.8,0.1-3.2,1.6-3.2,3.4v16.9c0,2,1.6,3.6,3.6,3.4
		c22.2-1.5,42.6-9.7,59.1-22.6c1.6-1.3,1.8-3.7,0.3-5.2l-12-12C161.5,173.5,159.6,173.4,158.2,174.4z"/>
	<path class="st0" d="M72.5,93.8c5.2,1.9,10.1,1.1,14.2-2.1c10.4-8.2,24.4-6.3,33.4-3.8c-2.6-9.5-4.2-22.1-4.7-37.8
		c-10.7-1.4-32.5-0.2-61.5,23.1c0,0-0.2,0.2-0.6,0.6C58.6,84.1,65.3,91.2,72.5,93.8z"/>
	<path class="st0" d="M74,112c-0.1-0.2-0.2-0.3-0.3-0.5c-2.1-3.8-2.7-7.1-2.7-9.6c-0.4-0.1-0.8-0.2-1.2-0.4
		c-8.7-3.1-16.4-10.6-22.5-21.6c-4,4.8-8,11.3-6.1,16.6c1.3,3.8,3.4,6.9,5.5,9.6c6.3,4.9,11.7,7,16,7.6
		C67.7,114.5,71.6,113.2,74,112z"/>
	<path class="st0" d="M123.7,52.2c1.4,35.3,8.3,45.7,12.6,48.8c1.8,1.3,3.4,2.4,5,3.5c8.2,5.5,13,9.5,15.1,20.7l0.1-0.1
		c0,0,15.1,1.4,17.9-16.1C177.2,91.6,177.5,67,123.7,52.2z"/>
	<path class="st0" d="M145,118.3c-2.1-2.9-5.3-4.9-8.2-6.9c-1.6-1.1-3.4-2.3-5.3-3.7c-3-2.2-5.5-5.4-7.7-9.8
		c-5.3-2.2-21.7-7.8-32,0.3c-3.8,3-8,4.6-12.5,4.8c0.2,1.3,0.7,3.1,1.9,5.1c2.7,4.7,7.1,8.3,11.6,11.3c6.4,4.3,13.4,7.6,20.6,10.3
		c7,2.7,15,6.3,22.6,5.6c2.8-0.3,5.6-1.2,8.2-2.2c1.3-0.5,2.5-1,3.8-1.6c1.8-0.8,0.4-4.6,0.1-6.1C147.4,122.8,146.5,120.3,145,118.3
		z"/>
	<path class="st0" d="M78.9,118.6c-2.9,1.7-7.3,3.6-13.3,3.6c-1.4,0-2.8-0.1-4.3-0.3c-3.2-0.5-6.4-1.5-9.6-2.9
		c-1,3.7-2.3,12.9,7.9,17.9c12.9,6.3,15.8,9.3,12.3,16.2c-3.4,6.9-2,10,0.2,11.2c2.2,1.2,10.6,3.4,33.7-28.2c0,0,0.1-0.2,0.2-0.4
		C93.9,130.5,84.8,124.9,78.9,118.6z"/>
</g>
</svg>
